<svg width="23" height="23" viewBox="0 0 23 23" fill="none" xmlns="http://www.w3.org/2000/svg">
<path fill-rule="evenodd" clip-rule="evenodd" d="M11.5 6.7085C10.2292 6.7085 9.01043 7.21333 8.11182 8.11194C7.21321 9.01055 6.70837 10.2293 6.70837 11.5002C6.70837 12.771 7.21321 13.9898 8.11182 14.8884C9.01043 15.787 10.2292 16.2918 11.5 16.2918C12.7709 16.2918 13.9896 15.787 14.8883 14.8884C15.7869 13.9898 16.2917 12.771 16.2917 11.5002C16.2917 10.2293 15.7869 9.01055 14.8883 8.11194C13.9896 7.21333 12.7709 6.7085 11.5 6.7085ZM8.62504 11.5002C8.62504 12.2627 8.92794 12.9939 9.46711 13.5331C10.0063 14.0723 10.7375 14.3752 11.5 14.3752C12.2625 14.3752 12.9938 14.0723 13.533 13.5331C14.0721 12.9939 14.375 12.2627 14.375 11.5002C14.375 10.7377 14.0721 10.0064 13.533 9.46723C12.9938 8.92806 12.2625 8.62516 11.5 8.62516C10.7375 8.62516 10.0063 8.92806 9.46711 9.46723C8.92794 10.0064 8.62504 10.7377 8.62504 11.5002Z" fill="white"/>
<path d="M17.2501 4.79199C16.9959 4.79199 16.7522 4.89296 16.5724 5.07268C16.3927 5.2524 16.2917 5.49616 16.2917 5.75033C16.2917 6.00449 16.3927 6.24825 16.5724 6.42797C16.7522 6.60769 16.9959 6.70866 17.2501 6.70866C17.5043 6.70866 17.748 6.60769 17.9277 6.42797C18.1075 6.24825 18.2084 6.00449 18.2084 5.75033C18.2084 5.49616 18.1075 5.2524 17.9277 5.07268C17.748 4.89296 17.5043 4.79199 17.2501 4.79199Z" fill="white"/>
<path fill-rule="evenodd" clip-rule="evenodd" d="M4.79171 0.958496C3.77504 0.958496 2.80002 1.36236 2.08113 2.08125C1.36224 2.80014 0.958374 3.77517 0.958374 4.79183V18.2085C0.958374 19.2252 1.36224 20.2002 2.08113 20.9191C2.80002 21.638 3.77504 22.0418 4.79171 22.0418H18.2084C19.225 22.0418 20.2001 21.638 20.919 20.9191C21.6378 20.2002 22.0417 19.2252 22.0417 18.2085V4.79183C22.0417 3.77517 21.6378 2.80014 20.919 2.08125C20.2001 1.36236 19.225 0.958496 18.2084 0.958496H4.79171ZM18.2084 2.87516H4.79171C4.28338 2.87516 3.79586 3.0771 3.43642 3.43654C3.07697 3.79599 2.87504 4.2835 2.87504 4.79183V18.2085C2.87504 18.7168 3.07697 19.2043 3.43642 19.5638C3.79586 19.9232 4.28338 20.1252 4.79171 20.1252H18.2084C18.7167 20.1252 19.2042 19.9232 19.5637 19.5638C19.9231 19.2043 20.125 18.7168 20.125 18.2085V4.79183C20.125 4.2835 19.9231 3.79599 19.5637 3.43654C19.2042 3.0771 18.7167 2.87516 18.2084 2.87516Z" fill="white"/>
</svg>
