<svg width="23" height="23" viewBox="0 0 23 23" fill="none" xmlns="http://www.w3.org/2000/svg">
<path d="M16.0259 13.4743C15.7811 13.3485 14.5614 12.7511 14.3346 12.6702C14.1077 12.5849 13.9415 12.5444 13.7776 12.796C13.6113 13.0453 13.1397 13.6001 12.9914 13.7686C12.8477 13.9348 12.7017 13.955 12.4568 13.8314C11.0014 13.1037 10.0468 12.5332 9.08771 10.8868C8.8339 10.4488 9.34152 10.4803 9.81544 9.53467C9.8963 9.36846 9.85587 9.22695 9.79298 9.10117C9.73009 8.97539 9.23595 7.75801 9.02931 7.26162C8.82941 6.77871 8.62277 6.84609 8.47228 6.83711C8.32853 6.82812 8.16456 6.82812 7.99835 6.82812C7.83214 6.82812 7.56486 6.89102 7.338 7.13584C7.11115 7.38516 6.47101 7.98486 6.47101 9.20225C6.47101 10.4196 7.35822 11.5988 7.4795 11.765C7.60529 11.9313 9.22472 14.4289 11.7111 15.5048C13.2834 16.1831 13.8988 16.2415 14.685 16.1247C15.1634 16.0528 16.1494 15.5272 16.3538 14.9455C16.5582 14.366 16.5582 13.8696 16.4976 13.7663C16.4369 13.6563 16.2707 13.5934 16.0259 13.4743Z" fill="white"/>
<path d="M20.7809 7.60078C20.2732 6.39463 19.5455 5.31201 18.6179 4.38213C17.6902 3.45449 16.6076 2.72451 15.3992 2.21914C14.1639 1.70029 12.8522 1.4375 11.5 1.4375H11.4551C10.094 1.44424 8.77549 1.71377 7.53565 2.24385C6.33848 2.75596 5.26485 3.48369 4.3462 4.41133C3.42754 5.33896 2.70655 6.41709 2.20792 7.61875C1.69131 8.86309 1.43077 10.186 1.43751 11.5472C1.44424 13.106 1.8171 14.6535 2.51563 16.0371V19.4512C2.51563 20.0217 2.97833 20.4844 3.54883 20.4844H6.96514C8.34874 21.1829 9.89629 21.5558 11.4551 21.5625H11.5023C12.8477 21.5625 14.1526 21.302 15.3813 20.7921C16.5829 20.2912 17.6633 19.5725 18.5887 18.6538C19.5163 17.7352 20.2463 16.6615 20.7562 15.4644C21.2862 14.2245 21.5558 12.9061 21.5625 11.5449C21.5692 10.1771 21.3042 8.84961 20.7809 7.60078ZM17.387 17.4387C15.8125 18.9975 13.7236 19.8555 11.5 19.8555H11.4618C10.1074 19.8487 8.76202 19.5118 7.57383 18.8784L7.38516 18.7773H4.22266V15.6148L4.12159 15.4262C3.48819 14.238 3.15127 12.8926 3.14454 11.5382C3.13555 9.29883 3.99131 7.19648 5.56133 5.61299C7.12911 4.02949 9.22471 3.15352 11.4641 3.14453H11.5023C12.6253 3.14453 13.7147 3.3624 14.7411 3.79365C15.7429 4.21367 16.6413 4.81787 17.414 5.59053C18.1844 6.36094 18.7908 7.26162 19.2108 8.26338C19.6466 9.30107 19.8645 10.4017 19.86 11.5382C19.8465 13.7753 18.9683 15.8709 17.387 17.4387Z" fill="white"/>
</svg>
